<svg width="94" height="59" viewBox="0 0 94 59" fill="none" xmlns="http://www.w3.org/2000/svg">
<mask id="mask0_1314_255" style="mask-type:luminance" maskUnits="userSpaceOnUse" x="32" y="14" width="62" height="31">
<path d="M32.3601 14.843H93.4999V44.8233H32.3601V14.843Z" fill="white"/>
</mask>
<g mask="url(#mask0_1314_255)">
<path d="M54.3405 37.5887C53.9587 37.2818 52.4703 35.9794 50.9111 30.4975C49.8845 26.8832 49.2009 22.8732 48.7505 20.218C48.5859 19.2548 48.4556 18.4936 48.3413 17.9283C48.2704 17.5749 48.2064 17.3165 48.1447 17.1105C47.6165 15.3781 46.0619 15.1741 45.5977 15.1519C42.5364 15.0167 41.2561 18.1584 40.6411 19.6728C39.8477 21.6273 39.059 24.2785 38.2268 27.0851C36.887 31.608 35.01 37.936 32.7717 41.4069C32.6665 41.5705 32.6482 41.7704 32.7214 41.948C32.7785 42.0874 32.8837 42.2045 33.0255 42.2832C33.2884 42.4246 33.6953 42.58 34.2235 42.58C35.1105 42.58 36.1508 42.1399 37.2299 41.308C38.8532 40.0581 40.0581 38.4388 40.7188 36.6276C41.7019 33.924 42.5593 31.0346 43.3778 28.2784C43.6453 27.3738 43.9539 26.336 44.2763 25.2961C45.632 32.244 47.5342 38.9092 51.1054 41.3221C54.8366 43.844 64.846 45.2938 73.0743 44.2903C85.6946 42.7497 93.4314 39.0183 93.4314 39.0183C82.3544 41.7441 60.7878 42.7396 54.3405 37.5887Z" fill="black"/>
</g>
<mask id="mask1_1314_255" style="mask-type:luminance" maskUnits="userSpaceOnUse" x="0" y="0" width="39" height="59">
<path d="M0 0.230469H38.7983V58.7696H0V0.230469Z" fill="white"/>
</mask>
<g mask="url(#mask1_1314_255)">
<path d="M32.4127 43.5049C31.896 43.2565 31.5028 42.8507 31.2925 42.3661C31.0158 41.724 30.6752 40.775 30.2933 39.3858C29.5983 36.8457 28.9719 33.6232 28.3066 30.2128C26.457 20.7127 24.5433 10.8916 19.8976 7.16628C19.0974 6.52621 17.9726 6.32228 16.962 6.63525C15.4874 7.08955 14.7466 8.36566 13.9647 10.4131C13.4457 11.774 12.849 13.6982 12.186 16.1313C11.0931 20.1575 9.79222 25.6859 8.31986 32.5672C7.98834 34.1098 7.66598 35.6524 7.35047 37.1688C6.98466 33.6716 6.55027 29.9483 6.03586 26.2371C4.81498 17.4175 3.40205 10.3464 1.83366 5.22386C1.24837 3.31577 0.642507 1.66814 6.10352e-05 0.262817C6.10352e-05 0.262817 3.59867 56.4335 3.60553 56.5748C3.66955 57.7782 4.75325 58.7434 6.11359 58.812C7.47393 58.8787 8.67423 58.0286 8.89143 56.8413C8.912 56.7343 10.8874 46.0268 13.2354 34.9174C15.7892 22.847 17.4216 16.7128 18.4161 13.5973C20.508 17.9061 21.9415 25.272 23.0595 31.0104C25.1012 41.4898 26.2398 46.5861 29.7744 47.8804C30.5563 48.1651 32.1292 48.4801 33.9034 47.3756C35.5907 46.3216 37.0013 44.5286 38.2222 42.3116C35.4992 44.4074 33.4781 44.0157 32.4127 43.5049Z" fill="url(#paint0_linear_1314_255)"/>
</g>
<defs>
<linearGradient id="paint0_linear_1314_255" x1="19.1111" y1="0.262817" x2="19.1111" y2="58.8157" gradientUnits="userSpaceOnUse">
<stop stop-color="#0066CC"/>
<stop offset="0.5" stop-color="#DB3185"/>
<stop offset="1" stop-color="#9400CF"/>
</linearGradient>
</defs>
</svg>
