<svg width="94" height="59" viewBox="0 0 94 59" fill="none" xmlns="http://www.w3.org/2000/svg">
<mask id="mask0_1443_734" style="mask-type:luminance" maskUnits="userSpaceOnUse" x="32" y="14" width="62" height="31">
<path d="M32.3601 14.6125H93.4999V44.5929H32.3601V14.6125Z" fill="white"/>
</mask>
<g mask="url(#mask0_1443_734)">
<path d="M54.3404 37.3582C53.9586 37.0513 52.4703 35.749 50.911 30.267C49.8845 26.6527 49.2009 22.6427 48.7505 19.9875C48.5859 19.0244 48.4555 18.2632 48.3412 17.6978C48.2703 17.3444 48.2063 17.086 48.1446 16.88C47.6165 15.1476 46.0618 14.9437 45.5977 14.9215C42.5363 14.7862 41.256 17.928 40.641 19.4423C39.8477 21.3969 39.0589 24.048 38.2267 26.8546C36.8869 31.3775 35.0099 37.7055 32.7716 41.1764C32.6664 41.34 32.6482 41.5399 32.7213 41.7176C32.7785 41.8569 32.8836 41.974 33.0254 42.0528C33.2883 42.1941 33.6953 42.3496 34.2234 42.3496C35.1105 42.3496 36.1507 41.9094 37.2299 41.0775C38.8531 39.8277 40.058 38.2083 40.7187 36.3971C41.7018 33.6935 42.5592 30.8041 43.3777 28.0479C43.6452 27.1434 43.9538 26.1055 44.2762 25.0657C45.632 32.0136 47.5342 38.6788 51.1053 41.0916C54.8366 43.6136 64.8459 45.0633 73.0743 44.0598C85.6946 42.5192 93.4314 38.7878 93.4314 38.7878C82.3543 41.5136 60.7878 42.5091 54.3404 37.3582Z" fill="white"/>
</g>
<mask id="mask1_1443_734" style="mask-type:luminance" maskUnits="userSpaceOnUse" x="0" y="0" width="39" height="59">
<path d="M0 0H38.7983V58.5391H0V0Z" fill="white"/>
</mask>
<g mask="url(#mask1_1443_734)">
<path d="M32.4127 43.2744C31.896 43.0261 31.5027 42.6202 31.2924 42.1356C31.0158 41.4935 30.6751 40.5445 30.2933 39.1553C29.5983 36.6153 28.9718 33.3927 28.3065 29.9824C26.4569 20.4823 24.5433 10.6611 19.8975 6.93581C19.0973 6.29574 17.9725 6.09181 16.962 6.40478C15.4873 6.85909 14.7465 8.13519 13.9646 10.1826C13.4456 11.5435 12.8489 13.4678 12.1859 15.9008C11.0931 19.927 9.79216 25.4554 8.31979 32.3367C7.98828 33.8793 7.66592 35.4219 7.35041 36.9383C6.9846 33.4412 6.55021 29.7179 6.03579 26.0067C4.81492 17.187 3.40199 10.116 1.8336 4.99339C1.24831 3.0853 0.642446 1.43768 0 0.0323486C0 0.0323486 3.59861 56.203 3.60547 56.3444C3.66949 57.5478 4.75319 58.5129 6.11353 58.5816C7.47387 58.6482 8.67417 57.7981 8.89137 56.6109C8.91194 56.5039 10.8873 45.7963 13.2353 34.687C15.7891 22.6165 17.4215 16.4823 18.416 13.3668C20.508 17.6757 21.9415 25.0415 23.0595 30.7799C25.1011 41.2593 26.2397 46.3556 29.7743 47.6499C30.5562 47.9346 32.1292 48.2496 33.9033 47.1451C35.5906 46.0911 37.0013 44.2981 38.2221 42.0811C35.4992 44.177 33.4781 43.7853 32.4127 43.2744Z" fill="url(#paint0_linear_1443_734)"/>
</g>
<defs>
<linearGradient id="paint0_linear_1443_734" x1="19.1111" y1="0.0323486" x2="19.1111" y2="58.5852" gradientUnits="userSpaceOnUse">
<stop stop-color="#0066CC"/>
<stop offset="0.5" stop-color="#DB3185"/>
<stop offset="1" stop-color="#9400CF"/>
</linearGradient>
</defs>
</svg>
